REM DIRINDEX 1\2\5,1\2\6,1\2\7,1\2\8,1\3\9,1\3\10,1\3\11,1\4\12,1\4\13,1\4\14,1\4\15,1\4\16
REM DIRNAME folder01,folder02,folder03,folder04,folder05,folder06,folder07,folder08,folder09,folder10,folder11,folder12,folder13,folder14,folder15,folder16
TITLE ""
FILE "1200_sec03_1132_1141.mp3" MP3
  TRACK 01 AUDIO
    TITLE "0:"
    INDEX 01 00:00:00
  TRACK 02 AUDIO
    TITLE "12:cjc034_08221"
    INDEX 01 00:00:17
  TRACK 03 AUDIO
    TITLE "0:"
    INDEX 01 00:04:17
  TRACK 04 AUDIO
    TITLE "13:cjc034_08222"
    INDEX 01 00:04:52
  TRACK 05 AUDIO
    TITLE "0:"
    INDEX 01 00:07:56
  TRACK 06 AUDIO
    TITLE "14:cjc034_08223"
    INDEX 01 00:08:15
  TRACK 07 AUDIO
    TITLE "0:"
    INDEX 01 00:12:14
  TRACK 08 AUDIO
    TITLE "15:cjc034_08224"
    INDEX 01 00:12:46
  TRACK 09 AUDIO
    TITLE "0:"
    INDEX 01 00:17:29
  TRACK 10 AUDIO
    TITLE "12:cjc034_08225"
    INDEX 01 00:18:62
  TRACK 11 AUDIO
    TITLE "0:"
    INDEX 01 00:20:06
  TRACK 12 AUDIO
    TITLE "13:cjc034_08226"
    INDEX 01 00:20:37
  TRACK 13 AUDIO
    TITLE "0:"
    INDEX 01 00:23:32
  TRACK 14 AUDIO
    TITLE "14:cjc034_08227"
    INDEX 01 00:23:67
  TRACK 15 AUDIO
    TITLE "0:"
    INDEX 01 00:25:11
  TRACK 16 AUDIO
    TITLE "15:cjc034_08228"
    INDEX 01 00:25:43
  TRACK 17 AUDIO
    TITLE "0:"
    INDEX 01 00:29:54
  TRACK 18 AUDIO
    TITLE "12:cjc034_08229"
    INDEX 01 00:31:12
  TRACK 19 AUDIO
    TITLE "0:"
    INDEX 01 00:32:48
  TRACK 20 AUDIO
    TITLE "13:cjc034_08230"
    INDEX 01 00:33:07
  TRACK 21 AUDIO
    TITLE "0:"
    INDEX 01 00:34:47
  TRACK 22 AUDIO
    TITLE "14:cjc034_08231"
    INDEX 01 00:35:04
  TRACK 23 AUDIO
    TITLE "0:"
    INDEX 01 00:36:42
  TRACK 24 AUDIO
    TITLE "15:cjc034_08232"
    INDEX 01 00:37:01
  TRACK 25 AUDIO
    TITLE "0:"
    INDEX 01 00:41:08
  TRACK 26 AUDIO
    TITLE "12:cjc034_08233"
    INDEX 01 00:42:43
  TRACK 27 AUDIO
    TITLE "0:"
    INDEX 01 00:45:16
  TRACK 28 AUDIO
    TITLE "13:cjc034_08234"
    INDEX 01 00:45:51
  TRACK 29 AUDIO
    TITLE "0:"
    INDEX 01 00:49:47
  TRACK 30 AUDIO
    TITLE "14:cjc034_08235"
    INDEX 01 00:50:05
  TRACK 31 AUDIO
    TITLE "0:"
    INDEX 01 00:52:55
  TRACK 32 AUDIO
    TITLE "15:cjc034_08236"
    INDEX 01 00:53:11
  TRACK 33 AUDIO
    TITLE "0:"
    INDEX 01 00:56:61
  TRACK 34 AUDIO
    TITLE "12:cjc034_08237"
    INDEX 01 00:58:20
  TRACK 35 AUDIO
    TITLE "0:"
    INDEX 01 00:59:32
  TRACK 36 AUDIO
    TITLE "13:cjc034_08238"
    INDEX 01 00:59:65
  TRACK 37 AUDIO
    TITLE "0:"
    INDEX 01 01:01:15
  TRACK 38 AUDIO
    TITLE "14:cjc034_08239"
    INDEX 01 01:01:46
  TRACK 39 AUDIO
    TITLE "0:"
    INDEX 01 01:02:59
  TRACK 40 AUDIO
    TITLE "15:cjc034_08240"
    INDEX 01 01:03:18
  TRACK 41 AUDIO
    TITLE "0:"
    INDEX 01 01:07:31
  TRACK 42 AUDIO
    TITLE "12:cjc034_08241"
    INDEX 01 01:08:64
  TRACK 43 AUDIO
    TITLE "0:"
    INDEX 01 01:10:10
  TRACK 44 AUDIO
    TITLE "13:cjc034_08242"
    INDEX 01 01:10:45
  TRACK 45 AUDIO
    TITLE "0:"
    INDEX 01 01:13:55
  TRACK 46 AUDIO
    TITLE "14:cjc034_08243"
    INDEX 01 01:14:12
  TRACK 47 AUDIO
    TITLE "0:"
    INDEX 01 01:15:35
  TRACK 48 AUDIO
    TITLE "15:cjc034_08244"
    INDEX 01 01:15:70
  TRACK 49 AUDIO
    TITLE "0:"
    INDEX 01 01:19:70
  TRACK 50 AUDIO
    TITLE "12:cjc034_08245"
    INDEX 01 01:21:33
  TRACK 51 AUDIO
    TITLE "0:"
    INDEX 01 01:23:34
  TRACK 52 AUDIO
    TITLE "13:cjc034_08246"
    INDEX 01 01:23:65
  TRACK 53 AUDIO
    TITLE "0:"
    INDEX 01 01:25:58
  TRACK 54 AUDIO
    TITLE "14:cjc034_08247"
    INDEX 01 01:26:19
  TRACK 55 AUDIO
    TITLE "0:"
    INDEX 01 01:28:18
  TRACK 56 AUDIO
    TITLE "15:cjc034_08248"
    INDEX 01 01:28:51
  TRACK 57 AUDIO
    TITLE "0:"
    INDEX 01 01:33:48
  TRACK 58 AUDIO
    TITLE "12:cjc034_08249"
    INDEX 01 01:35:06
  TRACK 59 AUDIO
    TITLE "0:"
    INDEX 01 01:36:68
  TRACK 60 AUDIO
    TITLE "13:cjc034_08250"
    INDEX 01 01:37:26
  TRACK 61 AUDIO
    TITLE "0:"
    INDEX 01 01:39:31
  TRACK 62 AUDIO
    TITLE "14:cjc034_08251"
    INDEX 01 01:39:63
  TRACK 63 AUDIO
    TITLE "0:"
    INDEX 01 01:41:48
  TRACK 64 AUDIO
    TITLE "15:cjc034_08252"
    INDEX 01 01:42:08
  TRACK 65 AUDIO
    TITLE "0:"
    INDEX 01 01:46:37
  TRACK 66 AUDIO
    TITLE "12:cjc034_08253"
    INDEX 01 01:47:70
  TRACK 67 AUDIO
    TITLE "0:"
    INDEX 01 01:51:27
  TRACK 68 AUDIO
    TITLE "13:cjc034_08254"
    INDEX 01 01:51:60
  TRACK 69 AUDIO
    TITLE "0:"
    INDEX 01 01:56:04
  TRACK 70 AUDIO
    TITLE "14:cjc034_08255"
    INDEX 01 01:56:39
  TRACK 71 AUDIO
    TITLE "0:"
    INDEX 01 01:59:71
  TRACK 72 AUDIO
    TITLE "15:cjc034_08256"
    INDEX 01 02:00:31
  TRACK 73 AUDIO
    TITLE "0:"
    INDEX 01 02:04:29
  TRACK 74 AUDIO
    TITLE "12:cjc034_08257"
    INDEX 01 02:05:64
  TRACK 75 AUDIO
    TITLE "0:"
    INDEX 01 02:07:20
  TRACK 76 AUDIO
    TITLE "13:cjc034_08258"
    INDEX 01 02:07:55
  TRACK 77 AUDIO
    TITLE "0:"
    INDEX 01 02:09:11
  TRACK 78 AUDIO
    TITLE "14:cjc034_08259"
    INDEX 01 02:09:46
  TRACK 79 AUDIO
    TITLE "0:"
    INDEX 01 02:11:04
  TRACK 80 AUDIO
    TITLE "15:cjc034_08260"
    INDEX 01 02:11:39
  TRACK 81 AUDIO
    TITLE "0:"
    INDEX 01 02:15:29
